<svg xmlns="http://www.w3.org/2000/svg" xmlns:xlink="http://www.w3.org/1999/xlink" xmlns:svgjs="http://svgjs.com/svgjs" width="512" height="512" x="0" y="0" viewBox="0 0 128 128" style="enable-background:new 0 0 512 512" xml:space="preserve" class=""><g><path d="m110.643 66.21-7.552-7.553 1.826-1.825a1.5 1.5 0 0 0 0-2.121L94.548 44.342a9.142 9.142 0 0 0 .316-2.355 8.968 8.968 0 0 0-2.638-6.388L68.524 11.895c-1.7-1.701-3.969-2.638-6.388-2.638s-4.688.937-6.389 2.637l-1.833 1.833a8.976 8.976 0 0 0-1.82 2.639 1.523 1.523 0 0 0-.303.113 8.92 8.92 0 0 0-2.288 1.66L25.799 41.843a8.928 8.928 0 0 0-1.801 2.603 9.001 9.001 0 0 0-2.611 1.807l-1.833 1.834c-1.701 1.7-2.638 3.969-2.638 6.388s.937 4.688 2.638 6.388l21.194 21.196v22.593H32.5a1.5 1.5 0 0 0-1.5 1.5v9.592H20.098a1.5 1.5 0 1 0 0 3h61.95a1.5 1.5 0 1 0 0-3H71.142v-9.592a1.5 1.5 0 0 0-1.5-1.5H61.41V79.563a8.97 8.97 0 0 0-.948-4.005 9 9 0 0 0-2.594-5.601L42.386 54.475l19.749-19.749 15.482 15.483a8.975 8.975 0 0 0 6.389 2.636c.849 0 1.678-.122 2.472-.345l10.324 10.324c.293.293.677.439 1.061.439s.768-.146 1.061-.439l2.046-2.046 7.552 7.553c.293.293.677.439 1.061.439s.768-.146 1.061-.439a1.5 1.5 0 0 0-.001-2.121zM19.917 54.475c0-1.617.625-3.132 1.759-4.267l1.833-1.834a6.043 6.043 0 0 1 8.534 0l22.402 22.403a8.993 8.993 0 0 0-2.069-.249h-2.592c-4.437 0-8.128 3.217-8.885 7.438L21.676 58.741a5.986 5.986 0 0 1-1.759-4.266zm48.225 61.268H34.001v-8.092h34.141zm-24.393-11.092V79.563a6.041 6.041 0 0 1 6.035-6.034h2.592a6.041 6.041 0 0 1 6.034 6.034v25.089H43.749zm-3.484-52.297-6.101-6.102a8.99 8.99 0 0 0-5.914-2.618l23.045-23.045a8.992 8.992 0 0 0 2.619 5.915l6.1 6.101zm39.473-4.266L56.036 24.383a6.042 6.042 0 0 1 0-8.535l1.833-1.833a5.993 5.993 0 0 1 4.268-1.759 5.99 5.99 0 0 1 4.266 1.759L90.106 37.72a5.986 5.986 0 0 1 1.759 4.266 6.009 6.009 0 0 1-1.011 3.356l-3.499 3.498a6.007 6.007 0 0 1-3.349 1.005 5.993 5.993 0 0 1-4.268-1.757zm18.125 11.555-8.534-8.534.004-.004a9.165 9.165 0 0 0 1.061-.896l1.833-1.834c.329-.329.62-.685.891-1.053l.084-.084 8.533 8.534z" fill="#ff722b" data-original="#000000" class=""></path><path d="M51.2 78.051a3.388 3.388 0 0 0-3.384 3.384c0 1.865 1.518 3.383 3.384 3.383s3.383-1.518 3.383-3.383a3.386 3.386 0 0 0-3.383-3.384zm0 3.766a.384.384 0 1 1 0-.766.384.384 0 0 1 0 .766zM28.157 51.092c-1.866 0-3.384 1.518-3.384 3.383s1.518 3.384 3.384 3.384 3.383-1.518 3.383-3.384-1.518-3.383-3.383-3.383zm0 3.767a.383.383 0 1 1-.002-.768.383.383 0 0 1 .002.768zM63.207 17.317c-1.866 0-3.383 1.518-3.383 3.384s1.518 3.383 3.383 3.383 3.384-1.518 3.384-3.383-1.519-3.384-3.384-3.384zm0 3.767a.384.384 0 1 1 .001-.767.384.384 0 0 1-.001.767z" fill="#ff722b" data-original="#000000" class=""></path></g></svg>