<?xml version="1.0" encoding="UTF-8" standalone="no"?>
<svg
   xmlns:dc="http://purl.org/dc/elements/1.1/"
   xmlns:cc="http://creativecommons.org/ns#"
   xmlns:rdf="http://www.w3.org/1999/02/22-rdf-syntax-ns#"
   xmlns:svg="http://www.w3.org/2000/svg"
   xmlns="http://www.w3.org/2000/svg"
   viewBox="0 0 72 24.999999"
   height="186.338998125"
   width="536.6563146"
   xml:space="preserve"
   version="1.1"
   id="svg3336"><metadata
     id="metadata3342"><rdf:RDF><cc:Work
         rdf:about=""><dc:format>image/svg+xml</dc:format><dc:type
           rdf:resource="http://purl.org/dc/dcmitype/StillImage" /><dc:title></dc:title></cc:Work></rdf:RDF></metadata><defs
     id="defs3340"><clipPath
       id="clipPath3368"
       clipPathUnits="userSpaceOnUse"><path
         id="path3370"
         d="m 0,841.891 595.28,0 L 595.28,0 0,0 0,841.891 Z" /></clipPath><clipPath
       id="clipPath3866"
       clipPathUnits="userSpaceOnUse"><path
         id="path3868"
         d="m 0,841.891 595.28,0 L 595.28,0 0,0 0,841.891 Z" /></clipPath><clipPath
       id="clipPath3960"
       clipPathUnits="userSpaceOnUse"><path
         id="path3962"
         d="m 0,841.891 595.28,0 L 595.28,0 0,0 0,841.891 Z" /></clipPath><clipPath
       id="clipPath3984"
       clipPathUnits="userSpaceOnUse"><path
         id="path3986"
         d="m 0,841.891 595.28,0 L 595.28,0 0,0 0,841.891 Z" /></clipPath><clipPath
       id="clipPath4000"
       clipPathUnits="userSpaceOnUse"><path
         id="path4002"
         d="m 40.08,178.212 132.79,0 0,125.482 -132.79,0 0,-125.482 z" /></clipPath><clipPath
       id="clipPath4028"
       clipPathUnits="userSpaceOnUse"><path
         id="path4030"
         d="m 0,841.891 595.28,0 L 595.28,0 0,0 0,841.891 Z" /></clipPath><clipPath
       id="clipPath4048"
       clipPathUnits="userSpaceOnUse"><path
         id="path4050"
         d="m 0,841.891 595.28,0 L 595.28,0 0,0 0,841.891 Z" /></clipPath><clipPath
       id="clipPath4068"
       clipPathUnits="userSpaceOnUse"><path
         id="path4070"
         d="m 0,841.891 595.28,0 L 595.28,0 0,0 0,841.891 Z" /></clipPath><clipPath
       id="clipPath4088"
       clipPathUnits="userSpaceOnUse"><path
         id="path4090"
         d="m 0,841.891 595.28,0 L 595.28,0 0,0 0,841.891 Z" /></clipPath></defs><g
     transform="matrix(1.25,0,0,-1.25,0,25.000153)"
     id="g3344"><g
       transform="translate(-511.20825,-793.90258)"
       id="g3864"
       clip-path="url(#clipPath3866)"><g
         id="g3870"
         transform="translate(532.9727,808.8047)"><path
           d="m 0,0 c 0,-1.956 1.448,-3.399 3.869,-3.399 1.021,0 1.982,0.16 2.979,0.625 L 7.755,-4.009 C 6.5,-4.67 5.296,-5.019 3.445,-5.019 c -3.862,0 -6.7,1.86 -6.7,5.018 l 0,0.001 c 0,3.157 2.838,5.015 6.7,5.015 1.851,0 2.917,-0.269 4.219,-0.828 L 6.736,2.766 C 5.748,3.29 4.89,3.398 3.869,3.398 1.448,3.398 0,1.957 0,0.001"
           style="fill:#da1745;fill-opacity:1;fill-rule:nonzero;stroke:none"
           id="path3872" /></g><g
         id="g3874"
         transform="translate(547.7056,805.3472)"><path
           d="m 0,0 c -2.056,0 -3.191,1.545 -3.191,3.458 0,1.913 1.135,3.459 3.191,3.459 2.056,0 3.193,-1.546 3.193,-3.459 C 3.193,1.545 2.056,0 0,0 m 0,8.477 c -3.738,0 -6.434,-1.862 -6.434,-5.019 0,-3.159 2.696,-5.019 6.434,-5.019 3.739,0 6.436,1.86 6.436,5.019 0,3.157 -2.697,5.019 -6.436,5.019"
           style="fill:#da1745;fill-opacity:1;fill-rule:nonzero;stroke:none"
           id="path3876" /></g><g
         id="g3878"
         transform="translate(563.8594,808.0781)"><path
           d="m 0,0 0,-4.038 3.09,0 0,9.531 -3.09,0 0,-3.636 -4.722,0 0,3.636 -3.083,0 0,-9.531 3.083,0 0,4.038 L 0,0 Z"
           style="fill:#da1745;fill-opacity:1;fill-rule:nonzero;stroke:none"
           id="path3880" /></g><path
         d="m 527.855,813.571 -3.253,0 0,-9.531 3.253,0 0,9.531 z"
         style="fill:#da1745;fill-opacity:1;fill-rule:nonzero;stroke:none"
         id="path3882" /><g
         id="g3884"
         transform="translate(515.2705,809.208)"><path
           d="m 0,0 0,-0.912 c 1.529,-1.182 3.087,-2.757 4.232,-4.256 l 3.643,0 c -1.268,1.488 -3.212,3.257 -4.644,4.147 1.681,0.069 3.554,0.75 3.554,2.68 0,2.473 -2.645,2.928 -5.319,2.928 -2.185,0 -4.197,-0.101 -5.405,-0.2 l 0,-9.555 3.038,0 0,8.117 c 0.56,0.059 1.165,0.127 2.38,0.127 1.564,0 2.357,-0.516 2.357,-1.417 C 3.836,0.888 3.508,-0.034 0,0"
           style="fill:#da1745;fill-opacity:1;fill-rule:nonzero;stroke:none"
           id="path3886" /></g><path
         d="m 511.576,799.627 0.777,0 0,-3.886 -0.777,0 0,3.886 z m 0,1.554 0.777,0 0,-0.754 -0.777,0 0,0.754 z"
         style="fill:#656263;fill-opacity:1;fill-rule:nonzero;stroke:none"
         id="path3888" /><g
         id="g3890"
         transform="translate(518.1704,795.7412)"><path
           d="m 0,0 0,2.494 c 0,0.474 -0.147,0.862 -0.692,0.862 -0.637,0 -0.862,-0.64 -0.862,-1.238 l 0,-2.118 -0.777,0 0,2.494 c 0,0.474 -0.148,0.862 -0.692,0.862 -0.638,0 -0.871,-0.64 -0.871,-1.238 l 0,-2.118 -0.777,0 0,2.992 c 0,0.295 -0.007,0.598 -0.037,0.894 l 0.729,0 0.024,-0.669 c 0.256,0.497 0.661,0.746 1.188,0.746 0.614,0 1.018,-0.365 1.135,-0.793 0.186,0.482 0.691,0.793 1.19,0.793 0.845,0 1.227,-0.575 1.227,-1.376 L 0.785,0 0,0 Z"
           style="fill:#656263;fill-opacity:1;fill-rule:nonzero;stroke:none"
           id="path3892" /></g><g
         id="g3894"
         transform="translate(552.4839,796.2314)"><path
           d="m 0,0 c 0.57,0.136 0.738,0.711 0.714,1.414 0,0 -1.764,0.142 -1.717,-0.836 C -0.975,0.004 -0.422,-0.101 0,0 M 0.761,-0.49 0.737,0.124 c -0.556,-1.038 -2.509,-0.928 -2.509,0.412 0,1.009 0.967,1.424 2.486,1.352 0.001,0.005 0.084,0.731 -0.417,0.954 -0.326,0.146 -1.023,0.124 -1.611,-0.223 l -0.047,0.597 c 0.903,0.373 2.838,0.608 2.838,-1.192 l 0,-1.651 c 0,-0.335 0.014,-0.598 0.045,-0.863 l -0.761,0 z"
           style="fill:#656263;fill-opacity:1;fill-rule:nonzero;stroke:none"
           id="path3896" /></g><g
         id="g3898"
         transform="translate(521.5049,796.2314)"><path
           d="m 0,0 c 0.57,0.136 0.738,0.711 0.714,1.414 0,0 -1.764,0.142 -1.717,-0.836 C -0.976,0.004 -0.423,-0.101 0,0 M 0.761,-0.49 0.737,0.124 c -0.556,-1.038 -2.509,-0.928 -2.509,0.412 0,1.009 0.966,1.424 2.486,1.352 0,0.005 0.083,0.731 -0.418,0.954 -0.326,0.146 -1.022,0.124 -1.61,-0.223 l -0.047,0.597 c 0.903,0.373 2.837,0.608 2.837,-1.192 l 0,-1.651 c 0,-0.335 0.015,-0.598 0.046,-0.863 l -0.761,0 z"
           style="fill:#656263;fill-opacity:1;fill-rule:nonzero;stroke:none"
           id="path3900" /></g><g
         id="g3902"
         transform="translate(560.9463,799.106)"><path
           d="m 0,0 c -0.8,0 -0.979,-0.761 -0.979,-1.414 0,-0.606 0.187,-1.352 0.971,-1.352 0.754,0 0.995,0.762 0.995,1.352 C 0.987,-0.792 0.753,0 0,0 m -1.507,-4.918 0.047,0.661 c 0.341,-0.18 0.753,-0.286 1.157,-0.28 1.344,0.021 1.266,1.136 1.266,1.849 0,0 -0.388,-0.673 -1.204,-0.677 -1.134,-0.003 -1.577,0.988 -1.577,1.958 0,1.034 0.443,2.006 1.593,2.006 0.536,0 0.971,-0.234 1.22,-0.724 l 0,0.646 0.746,0 0,-3.667 c 0,-2.165 -1.925,-2.181 -3.248,-1.772"
           style="fill:#656263;fill-opacity:1;fill-rule:nonzero;stroke:none"
           id="path3904" /></g><g
         id="g3906"
         transform="translate(525.623,799.106)"><path
           d="m 0,0 c -0.801,0 -0.979,-0.761 -0.979,-1.414 0,-0.606 0.186,-1.352 0.971,-1.352 0.754,0 0.994,0.762 0.994,1.352 C 0.986,-0.792 0.753,0 0,0 m -1.508,-4.918 0.047,0.661 c 0.342,-0.18 0.753,-0.286 1.157,-0.28 1.345,0.021 1.267,1.136 1.267,1.849 0,0 -0.388,-0.673 -1.204,-0.677 -1.134,-0.003 -1.578,0.988 -1.578,1.958 0,1.034 0.444,2.006 1.593,2.006 0.537,0 0.972,-0.234 1.221,-0.724 l 0,0.646 0.745,0 0,-3.667 c 0,-2.165 -1.925,-2.181 -3.248,-1.772"
           style="fill:#656263;fill-opacity:1;fill-rule:nonzero;stroke:none"
           id="path3908" /></g><path
         d="m 528.512,799.627 0.776,0 0,-3.886 -0.776,0 0,3.886 z m 0,1.554 0.776,0 0,-0.754 -0.776,0 0,0.754 z"
         style="fill:#656263;fill-opacity:1;fill-rule:nonzero;stroke:none"
         id="path3910" /><g
         id="g3912"
         transform="translate(565.2822,799.1685)"><path
           d="m 0,0 c -0.661,0 -0.972,-0.708 -0.972,-1.205 l 1.842,0 C 0.87,-0.653 0.661,0 0,0 m -0.963,-1.686 c 0.045,-1.358 1.253,-1.528 2.331,-1.01 l 0.047,-0.607 c -1.562,-0.506 -3.179,-0.206 -3.179,1.834 0,1.065 0.677,2.005 1.756,2.005 1.831,0 1.624,-2.222 1.624,-2.222 l -2.579,0 z"
           style="fill:#656263;fill-opacity:1;fill-rule:nonzero;stroke:none"
           id="path3914" /></g><g
         id="g3916"
         transform="translate(536.332,799.1685)"><path
           d="m 0,0 c -0.661,0 -0.971,-0.708 -0.971,-1.205 l 1.842,0 C 0.871,-0.653 0.662,0 0,0 m -0.963,-1.686 c 0.045,-1.358 1.254,-1.528 2.331,-1.01 l 0.047,-0.607 c -1.561,-0.506 -3.179,-0.206 -3.179,1.834 0,1.065 0.677,2.005 1.757,2.005 1.831,0 1.624,-2.222 1.624,-2.222 l -2.58,0 z"
           style="fill:#656263;fill-opacity:1;fill-rule:nonzero;stroke:none"
           id="path3918" /></g><path
         d="m 538.905,796.542 0.832,0 0,-0.8 -0.832,0 0,0.8 z"
         style="fill:#656263;fill-opacity:1;fill-rule:nonzero;stroke:none"
         id="path3920" /><g
         id="g3922"
         transform="translate(542.481,797.6992)"><path
           d="M 0,0 C 0,1.768 1.704,2.337 3.188,1.842 L 3.141,1.221 C 2.169,1.675 0.839,1.392 0.839,0 c 0,-1.347 1.268,-1.733 2.309,-1.274 l 0.04,-0.614 C 1.958,-2.308 0,-1.986 0,0"
           style="fill:#656263;fill-opacity:1;fill-rule:nonzero;stroke:none"
           id="path3924" /></g><g
         id="g3926"
         transform="translate(548.5957,799.7046)"><path
           d="m 0,0 c -0.543,0 -0.963,-0.241 -1.205,-0.723 l 0,2.199 -0.776,0 0,-5.439 0.776,0 0,2.035 c 0,0.605 0.234,1.321 0.949,1.321 0.668,0 0.77,-0.51 0.77,-1.064 l 0,-2.292 0.783,0 0,2.456 C 1.297,-0.622 0.932,0 0,0"
           style="fill:#656263;fill-opacity:1;fill-rule:nonzero;stroke:none"
           id="path3928" /></g><g
         id="g3930"
         transform="translate(557.5117,795.7412)"><path
           d="m 0,0 0,2.292 c 0,0.544 -0.101,1.064 -0.77,1.064 -0.722,0 -0.947,-0.657 -0.947,-1.271 l 0,-2.085 -0.778,0 0,2.992 c 0,0.295 -0.007,0.598 -0.039,0.894 l 0.731,0 0.023,-0.669 c 0.265,0.49 0.699,0.746 1.259,0.746 0.964,0 1.306,-0.614 1.306,-1.507 L 0.785,0 0,0 Z"
           style="fill:#656263;fill-opacity:1;fill-rule:nonzero;stroke:none"
           id="path3932" /></g><g
         id="g3934"
         transform="translate(532.9517,795.7412)"><path
           d="m 0,0 0,2.292 c 0,0.544 -0.101,1.064 -0.769,1.064 -0.722,0 -0.948,-0.657 -0.948,-1.271 l 0,-2.085 -0.777,0 0,2.992 c 0,0.295 -0.008,0.598 -0.039,0.894 l 0.731,0 0.023,-0.669 c 0.264,0.49 0.699,0.746 1.259,0.746 0.963,0 1.305,-0.614 1.305,-1.507 L 0.785,0 0,0 Z"
           style="fill:#656263;fill-opacity:1;fill-rule:nonzero;stroke:none"
           id="path3936" /></g><path
         d="m 567.854,796.542 0.831,0 0,-0.801 -0.831,0 0,0.801 z"
         style="fill:#656263;fill-opacity:1;fill-rule:nonzero;stroke:none"
         id="path3938" /></g></g></svg>